<svg id="Capa_1" enable-background="new 0 0 512 512" height="512" viewBox="0 0 512 512" width="512" xmlns="http://www.w3.org/2000/svg"><g><g><path d="m256 365.767 26.329 67.628-26.329 59.38h-69.759l-48.937-55.491c16.046-49.007 49.087-71.517 49.087-71.517z" fill="#b08bd7"/><path d="m374.696 437.284-48.937 55.491h-69.759v-127.008h69.609s33.041 22.51 49.087 71.517z" fill="#a47cd1"/><path d="m347.22 51.665s58.292-46.901 113.01 6.396 72.638 162.732-28.446 162.732z" fill="#6a647f"/><path d="m164.78 51.665s-58.292-46.901-113.01 6.396-72.638 162.732 28.446 162.732z" fill="#6a647f"/><path d="m248.863 368.423c2.81 0 5.589.15 8.337.427l-1.2-3.082h-69.609s-33.041 22.51-49.087 71.517l17.413 19.745c9.659-50.712 48.139-88.607 94.146-88.607z" fill="#a47cd1"/><ellipse cx="256" cy="211.541" fill="#e7886e" rx="192.316" ry="192.316" transform="matrix(.707 -.707 .707 .707 -74.601 242.978)"/><path d="m256 347.929c-73.68 0-133.623-31.827-133.623-105.507s59.943-77.392 133.623-77.392 133.623 3.713 133.623 77.392-59.943 105.507-133.623 105.507z" fill="#ffd3bc"/><path d="m107.304 224.104c0-94.165 52.112-174.192 124.687-203.384-94.754 11.853-168.307 92.906-168.307 190.82 0 73.74 41.725 137.909 102.798 170.167-36.399-39.293-59.178-95.356-59.178-157.603z" fill="#e27858"/><g fill="#fff"><ellipse cx="159.537" cy="122.234" rx="28.345" ry="35.593" transform="matrix(.002 -1 1 .002 36.953 281.503)"/><ellipse cx="352.464" cy="122.656" rx="28.345" ry="35.593" transform="matrix(.002 -1 1 .002 229.036 474.851)"/></g><path d="m186.241 437.284v55.491h-57.489c0-21.311 3.397-39.765 8.552-55.491z" fill="#ffd3bc"/><path d="m383.248 492.775h-57.489v-55.491h48.937c5.155 15.726 8.552 34.18 8.552 55.491z" fill="#ffd3bc"/><path d="m152.377 481.967c0-15.865 2.769-30.968 7.763-44.683h-22.836c-5.156 15.726-8.552 34.18-8.552 55.491h24.063c-.286-3.558-.438-7.162-.438-10.808z" fill="#ffbe9c"/></g><g><path d="m114.848 242.42c0 78.051 63.151 113.031 141.153 113.031 78.081 0 141.153-35.043 141.153-113.031 0-80.078-65.448-84.91-141.153-84.91-75.635 0-141.153 4.57-141.153 84.91zm141.152-69.907c35.063 0 68.45.802 91.562 10.486 23.92 10.023 34.587 28.349 34.587 59.421 0 69.228-56.651 98.028-126.149 98.028-69.49 0-126.149-28.794-126.149-98.028 0-31.072 10.667-49.399 34.587-59.421 23.111-9.684 56.499-10.486 91.562-10.486z"/><path d="m172.329 260.421c4.143 0 7.502-3.359 7.502-7.502v-16.078c0-4.143-3.359-7.502-7.502-7.502s-7.502 3.359-7.502 7.502v16.078c.001 4.144 3.359 7.502 7.502 7.502z"/><path d="m339.671 260.421c4.143 0 7.502-3.359 7.502-7.502v-16.078c0-4.143-3.359-7.502-7.502-7.502s-7.502 3.359-7.502 7.502v16.078c0 4.144 3.359 7.502 7.502 7.502z"/><path d="m256 269.992c10.622 0 20.724-4.601 27.715-12.622 2.722-3.123 2.397-7.862-.726-10.584-3.123-2.723-7.862-2.397-10.584.726-4.141 4.751-10.12 7.477-16.405 7.477-6.284 0-12.263-2.725-16.404-7.477-2.722-3.124-7.461-3.449-10.584-.726-3.123 2.722-3.448 7.461-.726 10.584 6.991 8.022 17.092 12.622 27.714 12.622z"/><path d="m188.109 101.091v-14.468c0-4.143-3.359-7.502-7.502-7.502s-7.502 3.359-7.502 7.502v14.467c0 4.143 3.359 7.502 7.502 7.502s7.502-3.358 7.502-7.501z"/><path d="m338.687 101.091v-14.468c0-4.143-3.359-7.502-7.502-7.502s-7.502 3.359-7.502 7.502v14.467c0 4.143 3.359 7.502 7.502 7.502s7.502-3.358 7.502-7.501z"/><path d="m256.116 127.519c15.699 15.371 42.357 4.253 42.357-17.802 0-4.143-3.359-7.502-7.502-7.502s-7.502 3.359-7.502 7.502c0 5.473-4.453 9.926-9.926 9.926s-9.926-4.453-9.926-9.926c0-4.143-3.359-7.502-7.502-7.502s-7.502 3.359-7.502 7.502c0 5.473-4.453 9.926-9.926 9.926s-9.926-4.453-9.926-9.926c0-4.143-3.359-7.502-7.502-7.502s-7.502 3.359-7.502 7.502c.001 22.056 26.661 33.173 42.359 17.802z"/><path d="m354.824 37.869c-60.61-34.626-136.184-35.217-197.727-.044-10.352-5.66-25.204-11.682-42.675-12.648-24.95-1.385-47.8 7.863-67.929 27.47-36.762 35.806-55.071 91.458-42.588 129.45 5.473 16.656 19.1 37.313 52.771 44.001 4.918 67.95 43.952 126.594 100.018 158.83-24.297 31.228-35.469 68.802-35.469 107.899 0 4.143 3.359 7.502 7.502 7.502h254.549c4.143 0 7.502-3.359 7.502-7.502 0-20.308-3.003-39.767-8.926-57.836v-.001c0-.001 0-.001 0-.002v-.001c-7.132-21.78-17.539-38.488-26.544-50.061 13.31-7.654 25.816-16.885 37.252-27.602 3.023-2.833 3.176-7.58.343-10.603s-7.58-3.177-10.603-.343c-58.063 54.419-142.57 64.647-210.588 29.647-.004-.002-.009-.003-.014-.006-93.194-47.96-127.891-163.352-77.271-254.162 1.641-2.943 1.088-6.515-1.123-8.831-3.481-3.664-9.53-2.902-11.993 1.516-16.898 30.318-25.014 63.848-25.164 96.088-19.543-4.775-32.304-15.92-37.985-33.214-10.642-32.382 6.402-82.466 38.799-114.022 25.242-24.585 54.769-29.411 85.245-16.155-16.143 11.236-30.764 24.942-43.324 40.901-2.404 3.054-2.058 7.393.682 10.034 3.215 3.122 8.386 2.75 11.128-.734 84.613-107.503 251.315-88.923 311.202 32.608 29.676 60.257 25.632 136.407-20.117 195.015-3.892 4.985-.228 12.118 5.908 12.118 2.231 0 4.439-.991 5.919-2.886 24.635-31.558 38.909-68.709 41.726-108.199 33.666-6.689 47.293-27.345 52.764-43.999 12.482-37.992-5.827-93.644-42.589-129.45-33.177-32.318-73.819-34.973-110.681-14.778zm-212.01 406.956h35.911v40.5h-42.349c.563-14.095 2.721-27.669 6.438-40.5zm43.413-15.003h-38.22c6.627-16.352 15.051-28.958 22.204-37.795 24.47 11.7 50.924 18.23 78.287 19.228v74.07h-54.77v-48.001c0-4.143-3.358-7.502-7.501-7.502zm147.048 55.503v-40.5h35.911c3.718 12.83 5.875 26.404 6.438 40.5zm8.514-93.297c7.153 8.836 15.577 21.442 22.204 37.795-23.661 0-14.562 0-38.22 0-4.143 0-7.502 3.359-7.502 7.502v48.001h-54.77v-74.07c26.936-.979 53.458-7.364 78.288-19.228zm114.067-181.4c-.294-66.824-33.799-127.092-86.139-163.356 30.105-13.125 59.75-8.785 85.321 16.122 45.42 44.239 65.425 131.449.818 147.234z"/></g></g></svg>